<svg xmlns="http://www.w3.org/2000/svg" viewBox="0 0 96 96" fill="none">
  <defs><filter id="shadow" x="-25%" y="-25%" width="150%" height="165%"><feDropShadow dx="0" dy="4" stdDeviation="3" flood-color="#111720" flood-opacity=".2"/></filter></defs>
  <path d="M48 4 85 25v46L48 92 11 71V25L48 4Z" fill="#fff" stroke="#D2D7DE" stroke-width="2"/>
  <path d="M48 10 79 28v40L48 86 17 68V28L48 10Z" fill="#F5F6F8"/>
  <g filter="url(#shadow)" stroke="#111720" stroke-width="3.5" stroke-linecap="round" stroke-linejoin="round"><circle cx="34" cy="35" r="11"/><path d="M17 66c2-18 32-18 34 0"/><path class="red" d="M57 35h22M68 24v22"/><path class="fill-dark" d="M67 48l16 7v11c0 10-6 17-16 22-10-5-16-12-16-22V55z"/></g>
  <style>.red{stroke:#DF0712}.fill-red{fill:#DF0712}.fill-dark{fill:#111720}.white{stroke:#fff}</style>
</svg>