<svg xmlns="http://www.w3.org/2000/svg" viewBox="0 0 96 96" fill="none">
  <defs><filter id="shadow" x="-25%" y="-25%" width="150%" height="165%"><feDropShadow dx="0" dy="4" stdDeviation="3" flood-color="#111720" flood-opacity=".2"/></filter></defs>
  <path d="M48 4 85 25v46L48 92 11 71V25L48 4Z" fill="#fff" stroke="#D2D7DE" stroke-width="2"/>
  <path d="M48 10 79 28v40L48 86 17 68V28L48 10Z" fill="#F5F6F8"/>
  <g filter="url(#shadow)" stroke="#111720" stroke-width="3.5" stroke-linecap="round" stroke-linejoin="round"><path class="fill-dark" d="M48 13l27 11v20c0 19-11 31-27 39-16-8-27-20-27-39V24z"/><path class="white" d="m35 49 8 8 17-21"/><circle class="red fill-red" cx="70" cy="67" r="12"/><path class="white" d="M65 67h10M70 62v10"/></g>
  <style>.red{stroke:#DF0712}.fill-red{fill:#DF0712}.fill-dark{fill:#111720}.white{stroke:#fff}</style>
</svg>