<svg xmlns="http://www.w3.org/2000/svg" viewBox="0 0 96 96" fill="none">
  <defs><filter id="shadow" x="-25%" y="-25%" width="150%" height="165%"><feDropShadow dx="0" dy="4" stdDeviation="3" flood-color="#111720" flood-opacity=".2"/></filter></defs>
  <path d="M48 4 85 25v46L48 92 11 71V25L48 4Z" fill="#fff" stroke="#D2D7DE" stroke-width="2"/>
  <path d="M48 10 79 28v40L48 86 17 68V28L48 10Z" fill="#F5F6F8"/>
  <g filter="url(#shadow)" stroke="#111720" stroke-width="3.5" stroke-linecap="round" stroke-linejoin="round"><rect x="17" y="18" width="62" height="20" rx="5"/><rect x="17" y="42" width="62" height="20" rx="5"/><rect x="17" y="66" width="62" height="15" rx="5"/><circle class="red fill-red" cx="27" cy="28" r="3"/><circle class="red fill-red" cx="27" cy="52" r="3"/><path class="red" d="M60 28h10M60 52h10"/><path class="fill-dark" d="M48 36l15 7v11c0 10-6 17-15 22-9-5-15-12-15-22V43z"/><path class="white" d="m41 54 5 5 9-11"/></g>
  <style>.red{stroke:#DF0712}.fill-red{fill:#DF0712}.fill-dark{fill:#111720}.white{stroke:#fff}</style>
</svg>